<svg width="45" height="45" viewBox="0 0 45 45" xmlns="http://www.w3.org/2000/svg">
    <g stroke-width="2" fill="none" fill-rule="evenodd">
        <path d="M10.57 29.916c-4.057 0-7.308-2.718-6.424-7.174.59-2.971 2.547-4.623 5.872-4.956-.388-3.24.567-6.025 2.865-8.354C16.329 5.938 22 6.565 24.927 9.065c1.95 1.666 3.136 4.039 3.555 7.118 3.026-1.238 5.69-.836 7.99 1.206 3.452 3.063 2.333 8.4.373 10.255-1.96 1.855-2.935 2.272-6.734 2.272" stroke="#B3B3B3"/>
        <path d="M25.724 37.172c.667 0 1.207-.54 1.207-1.206 0-.445-.402-1.25-1.207-2.414-.804 1.165-1.207 1.97-1.207 2.414 0 .666.54 1.206 1.207 1.206zM17.276 32.345a2.414 2.414 0 002.414-2.414c0-.889-.805-2.498-2.414-4.828-1.61 2.33-2.414 3.94-2.414 4.828a2.414 2.414 0 002.414 2.414z" stroke="#4776E2"/>
    </g>
</svg>
