<svg width="45" height="45" viewBox="0 0 45 45" xmlns="http://www.w3.org/2000/svg">
    <g stroke-width="2" fill="none" fill-rule="evenodd">
        <path d="M13.007 26.952c-3.71 0-6.682-2.486-5.873-6.56.539-2.716 2.328-4.226 5.368-4.53-.354-2.963.519-5.51 2.62-7.639 3.15-3.194 8.336-2.62 11.011-.335 1.784 1.523 2.867 3.692 3.25 6.508 2.768-1.132 5.203-.765 7.306 1.102 3.156 2.801 2.133 7.681.341 9.377-1.792 1.695-2.684 2.077-6.157 2.077" stroke="#B3B3B3"/>
        <path d="M26.862 38a2.207 2.207 0 002.207-2.207c0-.812-.736-2.284-2.207-4.414-1.471 2.13-2.207 3.602-2.207 4.414 0 1.219.988 2.207 2.207 2.207zM25.759 25.862c.609 0 1.103-.494 1.103-1.103 0-.407-.368-1.142-1.103-2.207-.736 1.065-1.104 1.8-1.104 2.207 0 .609.494 1.103 1.104 1.103zM18.034 41.31c.61 0 1.104-.494 1.104-1.103 0-.406-.368-1.142-1.104-2.207-.735 1.065-1.103 1.8-1.103 2.207 0 .61.494 1.103 1.103 1.103zM19.138 32.483a2.207 2.207 0 002.207-2.207c0-.813-.736-2.284-2.207-4.414-1.471 2.13-2.207 3.601-2.207 4.414 0 1.219.988 2.207 2.207 2.207z" stroke="#4776E2"/>
    </g>
</svg>
