<svg width="45" height="45" viewBox="0 0 45 45" xmlns="http://www.w3.org/2000/svg">
    <defs>
        <linearGradient x1="59.844%" y1="-3.924%" x2="50%" y2="100%" id="ico-45-forecast-snehove-prehanky-a">
            <stop stop-color="#F1CC47" offset="0%"/>
            <stop stop-color="#F76B1C" offset="100%"/>
        </linearGradient>
    </defs>
    <g fill="none" fill-rule="nonzero">
        <path d="M4.186 21.86c-2.978 2.644-2.736 7.696-.332 9.972.795.752.929.874 1.268 1.135.751.578 1.499.884 2.543 1.013l.246-1.985c-.69-.085-1.102-.254-1.57-.614-.26-.2-.383-.312-1.112-1.002-1.593-1.507-1.77-5.2.285-7.023 1.615-1.434 3.417-1.706 5.579-.822l1.195.489.174-1.28c.316-2.319 1.185-4.06 2.604-5.272 2.312-1.974 6.369-2.034 8.618.246 1.69 1.714 2.378 3.719 2.093 6.101l-.121 1.013 1.014.101c2.331.234 3.584 1.291 3.984 3.306.56 2.82-1.327 4.75-4.342 4.75v2c4.2 0 7.127-2.993 6.304-7.14-.517-2.601-2.164-4.22-4.781-4.76.074-2.585-.842-4.864-2.727-6.775-3.024-3.065-8.267-2.988-11.34-.363-1.55 1.323-2.574 3.114-3.076 5.341-2.403-.638-4.61-.114-6.506 1.57z" fill="#B3B3B3"/>
        <path d="M12.11 40.264l1.29-1.29 1.414 1.415-1.29 1.289 1.29 1.289L13.4 44.38l-1.29-1.289-1.288 1.289-1.414-1.414 1.288-1.29-1.288-1.288 1.414-1.414 1.289 1.289zm10-14l1.29-1.29 1.414 1.415-1.29 1.289 1.29 1.289L23.4 30.38l-1.29-1.289-1.288 1.289-1.414-1.414 1.288-1.29-1.288-1.288 1.414-1.414 1.289 1.289zm.994 10.5l2.445-1.417 1.003 1.73-2.457 1.424 2.457 1.424-1.003 1.73-2.445-1.417v2.813h-2v-2.816l-2.452 1.42-1.003-1.73 2.457-1.424-2.457-1.424 1.003-1.73 2.452 1.42v-2.913h2v2.91zm-8-7l2.445-1.417 1.003 1.73-2.457 1.424 2.457 1.424-1.003 1.73-2.445-1.417v2.813h-2v-2.816l-2.452 1.42-1.003-1.73 2.457-1.424-2.457-1.424 1.003-1.73 2.452 1.42v-2.913h2v2.91z" fill="#99B8FF"/>
        <path d="M24.223 10.475a8.112 8.112 0 1111.471 11.472l-1.414-1.415a6.112 6.112 0 10-8.643-8.643l-1.414-1.414zm-1.741-.856L19.862 7l1.414-1.414 2.62 2.62-1.414 1.414zm15.583 12.706l2.655 2.655-1.414 1.414-2.655-2.655 1.414-1.414zm2.13-7.258h4.564v2h-4.564v-2zm-3.532-6.73L39.61 5.39l1.414 1.414-2.947 2.947-1.414-1.414zm-7.327-2.088v-4.21h2v4.21h-2z" fill="url(#ico-45-forecast-snehove-prehanky-a)"/>
    </g>
</svg>
