<svg width="45" height="45" viewBox="0 0 45 45" xmlns="http://www.w3.org/2000/svg">
    <defs>
        <linearGradient x1="50%" y1="4.109%" x2="50%" y2="100%" id="ico-45-forecast-jasno-a">
            <stop stop-color="#F1CC47" offset="0%"/>
            <stop stop-color="#F76B1C" offset="100%"/>
        </linearGradient>
    </defs>
    <path d="M22.246 32.206a9.402 9.402 0 110-18.804 9.402 9.402 0 010 18.804zm0-2a7.402 7.402 0 100-14.804 7.402 7.402 0 000 14.804zM21.246 6h2v5.072h-2V6zm0 28.913h2v4.72h-2v-4.72zm-6.759-21.282l-1.414 1.414-3.474-3.474 1.415-1.414 3.473 3.474zm0 18.282l-3.473 3.474-1.415-1.415 3.474-3.473 1.414 1.414zm15.454-18.282l3.474-3.474 1.414 1.414-3.473 3.474-1.415-1.414zm0 18.282l1.415-1.414 3.473 3.473-1.414 1.415-3.474-3.474zM5 23.804v-2h5.072v2H5zm28.406.11v-2h6.014v2h-6.014z" fill="url(#ico-45-forecast-jasno-a)" fill-rule="nonzero"/>
</svg>
