<svg width="45" height="45" viewBox="0 0 45 45" xmlns="http://www.w3.org/2000/svg">
    <g fill="none" fill-rule="evenodd">
        <path d="M12.338 29.988c-2.872-.405-4.875-2.63-4.217-5.945.489-2.461 2.11-3.83 4.865-4.106-.32-2.685.47-4.992 2.374-6.922 2.856-2.895 7.555-2.375 9.98-.304 1.616 1.38 2.598 3.346 2.945 5.898 2.508-1.026 4.715-.693 6.621.999 2.86 2.538 1.932 6.96.309 8.497-1.241 1.175-2.042 1.722-3.74 1.883" stroke="#B3B3B3" stroke-width="2"/>
        <circle fill="#99B8FF" cx="17" cy="30" r="2"/>
        <circle fill="#99B8FF" cx="22" cy="27" r="2"/>
        <circle fill="#99B8FF" cx="22" cy="33" r="2"/>
        <circle fill="#99B8FF" cx="27" cy="30" r="2"/>
        <circle fill="#99B8FF" cx="17" cy="36" r="2"/>
        <circle fill="#99B8FF" cx="22" cy="39" r="2"/>
        <circle fill="#99B8FF" cx="27" cy="36" r="2"/>
    </g>
</svg>
