<svg width="45" height="45" viewBox="0 0 45 45" xmlns="http://www.w3.org/2000/svg">
    <defs>
        <linearGradient x1="50%" y1="4.109%" x2="50%" y2="100%" id="ico-45-forecast-skoro-jasno-a">
            <stop stop-color="#F1CC47" offset="0%"/>
            <stop stop-color="#F76B1C" offset="100%"/>
        </linearGradient>
    </defs>
    <g fill="none" fill-rule="nonzero">
        <path d="M4.481 23.86c-2.978 2.644-2.737 7.696-.332 9.972 1.875 1.774 2.97 2.156 6.268 2.156h16.621c2.74 0 4.568-1.017 5.21-3.069l-1.908-.598c-.346 1.105-1.356 1.667-3.302 1.667H10.417c-2.815 0-3.414-.21-4.893-1.61-1.593-1.506-1.77-5.199.285-7.022 1.615-1.434 3.417-1.706 5.579-.822l1.195.489.174-1.28c.316-2.319 1.185-4.06 2.604-5.272l-1.299-1.52c-1.549 1.322-2.573 3.113-3.075 5.34-2.403-.638-4.61-.114-6.506 1.57z" fill="#B3B3B3"/>
        <path d="M30.797 25.165a7.722 7.722 0 110-15.443 7.722 7.722 0 010 15.443zm0-2a5.722 5.722 0 100-11.443 5.722 5.722 0 000 11.443zM29.797 4h2v4.058h-2V4zm0 23.13h2v3.776h-2V27.13zM24.731 9.963l-1.414 1.414L20.538 8.6l1.414-1.415 2.779 2.779zm0 14.91l-2.779 2.778-1.414-1.414 2.779-2.78 1.414 1.415zm12.08-14.91l2.78-2.779L41.004 8.6l-2.78 2.778-1.413-1.414zm0 14.91l1.415-1.415 2.779 2.779-1.415 1.414-2.778-2.779zM17 18.442v-2h4.058v2H17zm22.725.089v-2h4.81v2h-4.81z" fill="url(#ico-45-forecast-skoro-jasno-a)"/>
    </g>
</svg>
