<svg width="45" height="45" viewBox="0 0 45 45" xmlns="http://www.w3.org/2000/svg">
    <defs>
        <linearGradient x1="73.425%" y1="76.631%" x2="96.256%" y2="12.84%" id="ico-45-forecast-noc-zatazeno-nizkou-oblacnosti-a">
            <stop stop-color="#2E3234" offset="0%"/>
            <stop stop-color="#3F4448" offset="100%"/>
        </linearGradient>
    </defs>
    <g fill="none" fill-rule="evenodd" stroke-width="2">
        <path stroke="#979797" d="M2 21.962l6.027-9.245 3.54 4.623L18.208 7l9.123 14.962"/>
        <path d="M23.188 13.644c.3-1.547.92-2.911 1.858-4.092.557-.7 1.645-1.607 3.266-2.717-.726 5.2.49 9.035 3.65 11.502 3.158 2.468 6.495 3.295 10.012 2.481-2.599 3.686-5.48 5.436-8.641 5.249" stroke="url(#ico-45-forecast-noc-zatazeno-nizkou-oblacnosti-a)" transform="rotate(11 32.58 16.457)"/>
        <g stroke="#B3B3B3">
            <path d="M17.597 39H32.47l.216-.02c2.325-.222 4.122-2.201 4.122-4.58 0-2.542-2.042-4.6-4.557-4.6-.394 0-.781.05-1.155.149l-1.067.281-.175-1.09a5.882 5.882 0 00-11.678 1.241l.047.93-.924.113c-1.745.215-3.1 1.826-3.1 3.776 0 2.03 1.465 3.68 3.296 3.794l.1.006zM10.955 35.596c-1.697-.17-2.942-.814-3.732-1.933-1.186-1.678-.436-3.766.38-4.844.543-.718 1.524-1.193 2.943-1.426-.288-2.865.695-4.964 2.948-6.299 2.254-1.334 4.616-1.07 7.088.795"/>
        </g>
    </g>
</svg>
