<svg width="45" height="45" viewBox="0 0 45 45" xmlns="http://www.w3.org/2000/svg">
    <defs>
        <linearGradient x1="50%" y1="-17.528%" x2="21.843%" y2="117.944%" id="ico-45-forecast-noc-mistni-bourky-a">
            <stop stop-color="#F1CC47" offset="0%"/>
            <stop stop-color="#F76B1C" offset="100%"/>
        </linearGradient>
        <linearGradient x1="73.425%" y1="76.631%" x2="96.256%" y2="12.84%" id="ico-45-forecast-noc-mistni-bourky-b">
            <stop stop-color="#2E3234" offset="0%"/>
            <stop stop-color="#3F4448" offset="100%"/>
        </linearGradient>
    </defs>
    <g fill="none" fill-rule="evenodd" stroke-width="2">
        <path d="M26.305 32.988c3.363 0 6.056-2.253 5.323-5.945-.488-2.461-2.11-3.83-4.865-4.106.321-2.685-.47-4.992-2.374-6.922-2.855-2.895-7.555-2.375-9.98-.304-1.615 1.38-2.597 3.346-2.944 5.898-2.508-1.026-4.715-.693-6.622.999-2.859 2.538-1.932 6.96-.308 8.497 1.623 1.537 2.432 1.883 5.58 1.883" stroke="#B3B3B3"/>
        <path stroke="url(#ico-45-forecast-noc-mistni-bourky-a)" transform="translate(3.63 14)" d="M14.546 13l-3.295 6.002h5.869l-5.87 10.437"/>
        <path d="M24.188 11.644c.568-2.927 2.277-5.196 5.124-6.81-.726 5.201.49 9.036 3.65 11.503 3.158 2.468 6.495 3.295 10.012 2.481-2.599 3.686-5.48 5.436-8.641 5.249" stroke="url(#ico-45-forecast-noc-mistni-bourky-b)"/>
    </g>
</svg>
