<svg width="45" height="45" viewBox="0 0 45 45" xmlns="http://www.w3.org/2000/svg">
    <defs>
        <linearGradient x1="50%" y1="5.673%" x2="25.704%" y2="100%" id="ico-45-forecast-zatazeno-nizkou-oblacnosti-a">
            <stop stop-color="#F1CC47" offset="0%"/>
            <stop stop-color="#F76B1C" offset="100%"/>
        </linearGradient>
    </defs>
    <g fill="none" fill-rule="nonzero">
        <path d="M33.177 24.664l-.717-1.867a5.722 5.722 0 00-4.101-10.683l-.717-1.867a7.722 7.722 0 115.535 14.417zM29.797 4h2v4.058h-2V4zm7.015 5.963l2.778-2.779L41.005 8.6l-2.78 2.778-1.413-1.414zm0 14.91l1.414-1.415 2.779 2.779-1.415 1.414-2.778-2.779zm2.913-6.341v-2h4.81v2h-4.81z" fill="url(#ico-45-forecast-zatazeno-nizkou-oblacnosti-a)"/>
        <path fill="#979797" d="M11.093 13.447l-5.255 8.061-1.676-1.092 6.8-10.43 3.534 4.615 6.732-10.486 9.956 16.327-1.707 1.04-8.292-13.597-6.545 10.193z"/>
        <path d="M32.592 37.984c1.812-.173 3.217-1.72 3.217-3.584 0-1.992-1.596-3.6-3.557-3.6-.308 0-.61.04-.9.116l-2.135.563-.35-2.18a4.882 4.882 0 00-9.691 1.032l.093 1.859-1.847.227c-1.232.151-2.222 1.328-2.222 2.783 0 1.514 1.067 2.716 2.357 2.796l.07.004h14.796l.169-.016zm-1.75-9.002l1.07-.172a5.6 5.6 0 01.34-.01c3.07 0 5.557 2.507 5.557 5.6 0 2.913-2.207 5.306-5.027 5.575L17.434 40c-2.361-.154-4.234-2.244-4.234-4.8 0-2.463 1.739-4.493 3.978-4.768a6.88 6.88 0 0113.32-2.753l.344 1.303zm-17.857-8.748c2.622-1.554 5.42-1.24 8.2.857l-1.205 1.597c-2.164-1.633-4.092-1.85-5.976-.733-1.908 1.13-2.713 2.85-2.463 5.339l.093.934-.927.152c-1.187.195-1.942.56-2.307 1.043-.84 1.11-1.089 2.633-.36 3.663.611.866 1.59 1.372 3.015 1.515l-.2 1.99c-1.97-.197-3.48-.98-4.449-2.35-1.31-1.855-.914-4.29.4-6.025.585-.774 1.49-1.305 2.692-1.622-.04-2.803 1.134-4.967 3.487-6.36z" fill="#B3B3B3"/>
    </g>
</svg>
