<svg width="45" height="45" viewBox="0 0 45 45" xmlns="http://www.w3.org/2000/svg">
    <g stroke-width="2" fill="none" fill-rule="evenodd">
        <path d="M11.57 30.916c-4.057 0-7.308-2.718-6.424-7.174.59-2.971 2.547-4.623 5.872-4.956-.388-3.24.567-6.025 2.865-8.354 3.446-3.494 9.118-2.867 12.044-.367 1.95 1.666 3.136 4.039 3.555 7.118 3.026-1.238 5.69-.836 7.99 1.206 3.452 3.063 2.333 8.4.373 10.255-1.96 1.855-2.935 2.272-6.734 2.272" stroke="#B3B3B3"/>
        <path d="M16.466 27H29.74M15.259 31h13.275M14.052 35h13.276" stroke="#4776E2" stroke-linecap="square"/>
    </g>
</svg>
