<svg width="45" height="45" viewBox="0 0 45 45" xmlns="http://www.w3.org/2000/svg">
    <g fill="none" fill-rule="evenodd" stroke-width="2">
        <path d="M13.444 29.988c-3.362 0-6.056-2.253-5.323-5.945.489-2.461 2.11-3.83 4.865-4.106-.32-2.685.47-4.992 2.374-6.922 2.856-2.895 7.555-2.375 9.98-.304 1.616 1.38 2.598 3.346 2.945 5.898 2.508-1.026 4.715-.693 6.621.999 2.86 2.538 1.932 6.96.309 8.497-1.624 1.537-2.433 1.883-5.58 1.883" stroke="#B3B3B3"/>
        <g transform="translate(15 23)" stroke="#979797">
            <circle cx="7.5" cy="7.5" r="7.5"/>
            <path d="M5.42 5.324c.634-.492 1.408-.69 2.324-.593 1.373.146 1.573 1.441.502 2.102-1.07.66-1.264.782-1.264 1.631M6.956 9.736v1.007"/>
        </g>
    </g>
</svg>
