<svg width="45" height="45" viewBox="0 0 45 45" xmlns="http://www.w3.org/2000/svg">
    <g stroke-width="2" fill="none" fill-rule="evenodd">
        <path d="M18.152 30.916h-6.581c-4.058 0-7.31-2.718-6.425-7.174.59-2.971 2.547-4.623 5.872-4.956-.388-3.24.567-6.025 2.865-8.354 3.446-3.494 9.118-2.867 12.044-.367 1.95 1.666 3.136 4.039 3.555 7.118 3.026-1.238 5.69-.836 7.99 1.206 3.452 3.063 2.333 8.4.373 10.255-1.96 1.855-2.935 2.272-6.734 2.272" stroke="#B3B3B3"/>
        <path d="M24.914 36.362c1 0 1.81-.81 1.81-1.81 0-.667-.603-1.874-1.81-3.621-1.207 1.747-1.81 2.954-1.81 3.62 0 1 .81 1.811 1.81 1.811z" stroke="#4776E2"/>
    </g>
</svg>
