<svg width="45" height="45" viewBox="0 0 45 45" xmlns="http://www.w3.org/2000/svg">
    <g stroke-width="2" fill="none" fill-rule="evenodd">
        <path d="M20.537 26.952h-7.53c-3.71 0-6.682-2.486-5.873-6.56.539-2.716 2.328-4.226 5.368-4.53-.354-2.963.519-5.51 2.62-7.639 3.15-3.194 8.336-2.62 11.011-.335 1.784 1.523 2.867 3.692 3.25 6.508 2.768-1.132 5.203-.765 7.306 1.102 3.156 2.801 2.133 7.681.341 9.377-1.792 1.695-2.684 2.077-6.157 2.077" stroke="#B3B3B3"/>
        <g stroke="#99B8FF">
            <path d="M32.435 32.717l-8.717 5.052M32.435 37.769l-8.717-5.052M28.106 30.114v10.149"/>
        </g>
        <path d="M26.31 26.414c.914 0 1.656-.741 1.656-1.655 0-.61-.552-1.713-1.656-3.31-1.103 1.597-1.655 2.7-1.655 3.31 0 .914.741 1.655 1.655 1.655z" stroke="#4776E2"/>
    </g>
</svg>
