<svg width="45" height="45" viewBox="0 0 45 45" xmlns="http://www.w3.org/2000/svg">
    <g stroke-width="2" fill="none" fill-rule="evenodd">
        <path d="M13.007 24.952c-3.71 0-6.682-2.486-5.873-6.56.539-2.716 2.328-4.226 5.368-4.53-.354-2.963.519-5.51 2.62-7.639 3.15-3.194 8.336-2.62 11.011-.335C27.917 7.41 29 9.58 29.383 12.396c2.768-1.132 5.203-.765 7.306 1.102 3.156 2.801 2.133 7.681.341 9.377-1.792 1.695-2.684 2.077-6.157 2.077" stroke="#B3B3B3"/>
        <path d="M18.586 22.806L15.67 26.62l2.916 3.815 2.916-3.815-2.916-3.815zM26.31 28.323l-2.915 3.815 2.915 3.815 2.916-3.815-2.916-3.815zM26.862 20.18l-1.127 1.475 1.127 1.474 1.127-1.474-1.127-1.474zM18.034 35.63l-1.126 1.473 1.126 1.475 1.127-1.475-1.127-1.474z" stroke="#99B8FF"/>
    </g>
</svg>
