<svg width="45" height="45" viewBox="0 0 45 45" xmlns="http://www.w3.org/2000/svg">
    <defs>
        <linearGradient x1="73.425%" y1="76.631%" x2="96.256%" y2="12.84%" id="ico-45-forecast-noc-oblacno-a">
            <stop stop-color="#2E3234" offset="0%"/>
            <stop stop-color="#3F4448" offset="100%"/>
        </linearGradient>
    </defs>
    <g fill="none" fill-rule="evenodd" stroke-width="2">
        <path d="M13.488 35H32.1l.282-.027c3.036-.289 5.38-2.87 5.38-5.973 0-3.315-2.664-6-5.947-6-.514 0-1.02.066-1.508.194l-1.067.282-.175-1.09A7.602 7.602 0 0021.562 16a7.6 7.6 0 00-7.59 7.99l.046.929-.923.113C10.785 25.316 9 27.44 9 30c0 2.666 1.93 4.842 4.354 4.992l.134.008z" stroke="#B3B3B3"/>
        <path d="M23.188 13.644c.568-2.927 2.277-5.196 5.124-6.81-.726 5.201.49 9.036 3.65 11.503 3.158 2.468 6.495 3.295 10.012 2.481-1.473 2.162-2.699 3.428-3.677 3.799" stroke="url(#ico-45-forecast-noc-oblacno-a)"/>
        <path d="M7.194 30.495c-2.122-.212-3.677-1.018-4.666-2.416-1.482-2.097-.544-4.708.475-6.055.68-.897 1.906-1.492 3.679-1.782-.36-3.581.87-6.206 3.686-7.874 2.817-1.668 5.77-1.337 8.86.993" stroke="#B3B3B3"/>
    </g>
</svg>
