<svg width="45" height="45" viewBox="0 0 45 45" xmlns="http://www.w3.org/2000/svg">
    <defs>
        <linearGradient x1="73.425%" y1="76.631%" x2="96.256%" y2="12.84%" id="ico-45-forecast-noc-snehove-prehanky-a">
            <stop stop-color="#2E3234" offset="0%"/>
            <stop stop-color="#3F4448" offset="100%"/>
        </linearGradient>
    </defs>
    <g fill="none" fill-rule="evenodd" stroke-width="2">
        <path d="M26.305 32.988c3.363 0 6.056-2.253 5.323-5.945-.488-2.461-2.11-3.83-4.865-4.106.321-2.685-.47-4.992-2.374-6.922-2.855-2.895-7.555-2.375-9.98-.304-1.615 1.38-2.597 3.346-2.944 5.898-2.508-1.026-4.715-.693-6.622.999-2.859 2.538-1.932 6.96-.308 8.497 1.171 1.109 1.739 1.696 3.246 1.883" stroke="#B3B3B3"/>
        <g stroke="#99B8FF">
            <path d="M18.05 29.212l-7.9 4.578M18.05 33.79l-7.9-4.578M14.104 26.854v9.197"/>
        </g>
        <g stroke="#99B8FF">
            <path d="M26.05 36.212l-7.9 4.578M26.05 40.79l-7.9-4.578M22.104 33.854v9.197"/>
        </g>
        <g stroke="#99B8FF">
            <path d="M20.115 25.682l3.992 3.992M24.107 25.682l-3.992 3.992"/>
        </g>
        <g stroke="#99B8FF">
            <path d="M10.115 39.682l3.992 3.992M14.107 39.682l-3.992 3.992"/>
        </g>
        <path d="M23.188 11.644c.568-2.927 2.277-5.196 5.124-6.81-.726 5.201.49 9.036 3.65 11.503 3.158 2.468 6.495 3.295 10.012 2.481-2.599 3.686-5.48 5.436-8.641 5.249" stroke="url(#ico-45-forecast-noc-snehove-prehanky-a)"/>
    </g>
</svg>
