<svg width="45" height="45" viewBox="0 0 45 45" xmlns="http://www.w3.org/2000/svg">
    <defs>
        <linearGradient x1="70.527%" y1="3.325%" x2="39.122%" y2="103.586%" id="ico-45-forecast-polojasno-a">
            <stop stop-color="#F1CC47" offset="0%"/>
            <stop stop-color="#F76B1C" offset="100%"/>
        </linearGradient>
    </defs>
    <g fill="none" fill-rule="nonzero">
        <path d="M9.53 36.062a4.947 4.947 0 111.702-9.716l2.19.56.29-2.243a6.602 6.602 0 1113.064 1.891l-.33 2.095 2.11.207a3.624 3.624 0 01-.146 7.222l-.107.007H9.765l-.235-.023zm2.197-11.654l-1.677-.216c-3.883 0-6.993 3.11-6.993 6.946a6.947 6.947 0 006.284 6.916l19.185.03a5.639 5.639 0 005.292-5.622 5.625 5.625 0 00-4.417-5.494l-.65-.102.099-1.004a8.6 8.6 0 00-16.638-3.394l-.485 1.94z" fill="#B3B3B3"/>
        <path d="M21.223 14.475a8.112 8.112 0 0111.471 11.472l-1.414-1.415a6.112 6.112 0 10-8.643-8.643l-1.414-1.414zm-1.741-.856L16.862 11l1.414-1.414 2.62 2.62-1.414 1.414zm15.583 12.706l2.655 2.655-1.414 1.414-2.655-2.655 1.414-1.414zm2.13-7.258h4.564v2h-4.564v-2zm-3.532-6.73L36.61 9.39l1.414 1.414-2.947 2.947-1.414-1.414zm-7.327-2.088v-4.21h2v4.21h-2z" fill="url(#ico-45-forecast-polojasno-a)"/>
    </g>
</svg>
