<svg width="45" height="45" viewBox="0 0 45 45" xmlns="http://www.w3.org/2000/svg">
    <defs>
        <linearGradient x1="44.334%" y1="-6.92%" x2="38.894%" y2="148.208%" id="ico-45-forecast-oblacno-a">
            <stop stop-color="#F1CC47" offset="0%"/>
            <stop stop-color="#F76B1C" offset="100%"/>
        </linearGradient>
    </defs>
    <g fill="none" fill-rule="nonzero">
        <path d="M34.287 33.978c2.522-.24 4.475-2.39 4.475-4.978 0-2.765-2.218-5-4.947-5-.428 0-.848.055-1.253.161l-2.134.563-.35-2.18A6.6 6.6 0 0016.97 23.94l.094 1.859-1.847.227C13.42 26.245 12 27.935 12 30c0 2.15 1.533 3.877 3.416 3.994l.103.006h18.534l.234-.022zm-2.234-11.75l1.337-.215a7 7 0 01.425-.013c3.837 0 6.947 3.134 6.947 7 0 3.641-2.76 6.633-6.285 6.969L15.292 36C12.341 35.807 10 33.195 10 30c0-3.079 2.173-5.616 4.973-5.96a8.6 8.6 0 0116.65-3.442l.43 1.63z" fill="#B3B3B3"/>
        <path d="M24.355 12.53a8.112 8.112 0 0113.647 7.53l-1.951-.44a6.112 6.112 0 00-10.282-5.675l-1.414-1.415zm-1.873-.91L19.862 9l1.414-1.415 2.62 2.62-1.414 1.414zm17.713 5.447h4.564v2h-4.564v-2zm-3.532-6.73L39.61 7.39l1.414 1.414-2.947 2.947-1.414-1.414zm-7.327-2.088v-4.21h2v4.21h-2z" fill="url(#ico-45-forecast-oblacno-a)"/>
        <path d="M9.858 11.507C13.044 9.62 16.432 10 19.83 12.563l-1.204 1.597c-2.783-2.099-5.301-2.381-7.748-.932-2.471 1.464-3.522 3.709-3.201 6.914l.094.934-.927.152c-1.543.254-2.542.738-3.043 1.4-1.11 1.465-1.439 3.483-.456 4.874.81 1.145 2.099 1.813 3.949 1.998l-.2 1.99c-2.394-.24-4.215-1.183-5.382-2.834-1.566-2.215-1.088-5.146.494-7.235.725-.958 1.874-1.609 3.421-1.986-.107-3.511 1.315-6.2 4.231-7.928z" fill="#B3B3B3"/>
    </g>
</svg>
